<?xml version="1.0" encoding="utf-8"?>
<!-- Generator: Adobe Illustrator 19.1.0, SVG Export Plug-In . SVG Version: 6.00 Build 0)  -->
<!DOCTYPE svg PUBLIC "-//W3C//DTD SVG 1.1//EN" "http://www.w3.org/Graphics/SVG/1.1/DTD/svg11.dtd">
<svg version="1.1" id="Layer_1" xmlns="http://www.w3.org/2000/svg" xmlns:xlink="http://www.w3.org/1999/xlink" x="0px" y="0px"
	 width="256px" height="256px" viewBox="-235 -117 256 256" style="enable-background:new -235 -117 256 256;" xml:space="preserve"
	>
<style type="text/css">
	.st0{fill:#FFFFFF;}
</style>
<rect x="-235" y="-117" width="257.3" height="256"/>
<g>
	<polygon class="st0" points="-107.6,77.9 -94.9,65.1 -88.5,58.8 -82.2,52.4 -74.5,46 -68.2,39.7 -61.8,33.3 -55.4,26.9 -55.4,14.2 
		-94.9,14.2 -94.9,-50.8 -107.6,-50.8 -120.4,-50.8 -120.4,14.2 -159.9,14.2 -159.9,26.9 -153.5,33.3 -145.8,39.7 -140.8,44.8 
		-133.1,52.4 -126.7,58.8 -120.4,65.1 	"/>
	<rect x="-223.5" y="117.3" class="st0" width="233.1" height="12.7"/>
	<polygon class="st0" points="-210.8,90.6 -223.5,90.6 -223.5,104.6 -210.8,104.6 -198.1,104.6 8.3,104.6 8.3,90.6 -198.1,90.6 	"/>
	<polygon class="st0" points="-17.2,65.1 -17.2,-115.7 -29.9,-115.7 -29.9,65.1 -29.9,77.9 22.3,77.9 22.3,65.1 	"/>
	<rect x="-172.6" y="-77.5" class="st0" width="129.9" height="12.7"/>
	<rect x="-172.6" y="-103" class="st0" width="129.9" height="12.7"/>
	<polygon class="st0" points="-185.3,77.9 -185.3,-115.7 -198.1,-115.7 -198.1,65.1 -235,65.1 -235,77.9 -198.1,77.9 	"/>
</g>
</svg>
