<?xml version="1.0" encoding="utf-8"?>
<!-- Generator: Adobe Illustrator 19.1.0, SVG Export Plug-In . SVG Version: 6.00 Build 0)  -->
<!DOCTYPE svg PUBLIC "-//W3C//DTD SVG 1.1//EN" "http://www.w3.org/Graphics/SVG/1.1/DTD/svg11.dtd">
<svg version="1.1" id="Layer_1" xmlns="http://www.w3.org/2000/svg" xmlns:xlink="http://www.w3.org/1999/xlink" x="0px" y="0px"
	 width="20px" height="20px" viewBox="-117 119 20 20" style="enable-background:new -117 119 20 20;" xml:space="preserve">
<style type="text/css">
	.st0{fill-rule:evenodd;clip-rule:evenodd;}
	.st1{fill-rule:evenodd;clip-rule:evenodd;fill:#FFFFFF;}
</style>
<rect x="-117.1" y="118.9" class="st0" width="20.2" height="20.1"/>
<g>
	<polygon class="st1" points="-107.1,134.2 -106.1,133.2 -105.6,132.7 -105.1,132.2 -104.5,131.7 -104,131.2 -103.5,130.7 
		-103,130.2 -103,129.2 -106.1,129.2 -106.1,124.1 -107.1,124.1 -108.1,124.1 -108.1,129.2 -111.2,129.2 -111.2,130.2 -110.7,130.7 
		-110.1,131.2 -109.7,131.6 -109.1,132.2 -108.6,132.7 -108.1,133.2 	"/>
	<rect x="-116.2" y="137.3" class="st1" width="18.3" height="1"/>
	<polygon class="st1" points="-115.2,135.2 -116.2,135.2 -116.2,136.3 -115.2,136.3 -114.2,136.3 -98,136.3 -98,135.2 -114.2,135.2 
			"/>
	<polygon class="st1" points="-100,133.2 -100,119 -101,119 -101,133.2 -101,134.2 -96.9,134.2 -96.9,133.2 	"/>
	<rect x="-112.2" y="122" class="st1" width="10.2" height="1"/>
	<rect x="-112.2" y="120" class="st1" width="10.2" height="1"/>
	<polygon class="st1" points="-113.2,134.2 -113.2,119 -114.2,119 -114.2,133.2 -117.1,133.2 -117.1,134.2 -114.2,134.2 	"/>
</g>
</svg>
